<?xml version="1.0" encoding="UTF-8" standalone="no"?>
<svg
   xmlns:dc="http://purl.org/dc/elements/1.1/"
   xmlns:cc="http://creativecommons.org/ns#"
   xmlns:rdf="http://www.w3.org/1999/02/22-rdf-syntax-ns#"
   xmlns:svg="http://www.w3.org/2000/svg"
   xmlns="http://www.w3.org/2000/svg"
   xmlns:sodipodi="http://sodipodi.sourceforge.net/DTD/sodipodi-0.dtd"
   xmlns:inkscape="http://www.inkscape.org/namespaces/inkscape"
   width="250"
   height="250"
   version="1.1"
   id="svg16"
   sodipodi:docname="kodi_logo_only.svg"
   inkscape:version="0.92.4 5da689c313, 2019-01-14">
  <metadata
     id="metadata22">
    <rdf:RDF>
      <cc:Work
         rdf:about="">
        <dc:format>image/svg+xml</dc:format>
        <dc:type
           rdf:resource="http://purl.org/dc/dcmitype/StillImage" />
      </cc:Work>
    </rdf:RDF>
  </metadata>
  <defs
     id="defs20" />
  <sodipodi:namedview
     pagecolor="#ffffff"
     bordercolor="#666666"
     borderopacity="1"
     objecttolerance="10"
     gridtolerance="10"
     guidetolerance="10"
     inkscape:pageopacity="0"
     inkscape:pageshadow="2"
     inkscape:window-width="1600"
     inkscape:window-height="881"
     id="namedview18"
     showgrid="false"
     inkscape:zoom="0.944"
     inkscape:cx="127.11864"
     inkscape:cy="125"
     inkscape:window-x="0"
     inkscape:window-y="0"
     inkscape:window-maximized="0"
     inkscape:current-layer="svg16" />
  <g
     id="g5">
    <title
       id="title2">background</title>
    <rect
       fill="none"
       id="canvas_background"
       height="252"
       width="252"
       y="-1"
       x="-1" />
  </g>
  <g
     id="g14">
    <title
       id="title7">Layer 1</title>
    <g
       id="svg_6">
      <path
         id="svg_7"
         d="m247.521,126.371c-0.791,2.568 -2.526,4.448 -4.384,6.299c-12.448,12.406 -24.857,24.852 -37.278,37.284c-4.476,4.478 -9.259,4.465 -13.752,-0.032c-12.82,-12.83 -25.641,-25.659 -38.456,-38.491c-4.366,-4.372 -4.364,-9.144 0.013,-13.526c12.888,-12.906 25.778,-25.809 38.671,-38.708c4.195,-4.198 9.124,-4.2 13.318,-0.004c12.499,12.501 24.979,25.02 37.499,37.496c1.859,1.852 3.586,3.741 4.369,6.31l0,3.372z"
         fill="#31AFE1"
         clip-rule="evenodd"
         fill-rule="evenodd" />
      <path
         id="svg_8"
         d="m123.953,246.566c-2.556,-0.812 -4.408,-2.582 -6.251,-4.436c-12.395,-12.458 -24.828,-24.877 -37.247,-37.312c-4.444,-4.45 -4.449,-9.198 -0.015,-13.638c12.855,-12.865 25.709,-25.729 38.567,-38.592c4.274,-4.274 9.171,-4.29 13.422,-0.037c12.856,12.864 25.711,25.729 38.563,38.597c4.415,4.421 4.428,9.264 0.031,13.664c-12.527,12.541 -25.075,25.066 -37.573,37.633c-1.789,1.798 -3.629,3.415 -6.123,4.12l-3.374,0l0,0.001z"
         fill="#31AFE1"
         clip-rule="evenodd"
         fill-rule="evenodd" />
      <path
         id="svg_9"
         d="m78.841,93.859c0,-14.303 0.129,-28.608 -0.081,-42.909c-0.061,-4.14 0.928,-7.374 4.089,-10.104c2.543,-2.198 4.797,-4.733 7.179,-7.118c9.423,-9.433 18.845,-18.867 28.271,-28.296c4.433,-4.432 9.213,-4.429 13.643,0.002c12.821,12.825 25.641,25.653 38.459,38.482c4.403,4.407 4.4,9.254 -0.003,13.663c-15.16,15.179 -30.326,30.356 -45.49,45.533c-13.391,13.405 -26.78,26.809 -40.173,40.212c-2.481,2.482 -4.679,1.905 -5.581,-1.536c-0.278,-1.066 -0.3,-2.219 -0.301,-3.332c-0.018,-14.866 -0.012,-29.732 -0.012,-44.597"
         fill="#31AFE1"
         clip-rule="evenodd"
         fill-rule="evenodd" />
      <path
         id="svg_10"
         d="m48.182,124.853c0,13.127 0.019,26.256 -0.026,39.383c-0.005,1.247 -0.203,2.567 -0.65,3.724c-0.876,2.279 -2.52,2.561 -4.241,0.844c-6.037,-6.027 -12.057,-12.071 -18.083,-18.107c-6.965,-6.977 -13.932,-13.953 -20.894,-20.934c-2.882,-2.889 -2.895,-6.898 -0.024,-9.801c12.82,-12.967 25.643,-25.933 38.472,-38.895c0.848,-0.857 1.648,-2.02 3.089,-1.475c1.378,0.52 1.922,1.763 2.118,3.141c0.122,0.854 0.218,1.722 0.22,2.583c0.013,13.179 0.009,26.359 0.009,39.537l0.01,0z"
         fill="#31AFE1"
         clip-rule="evenodd"
         fill-rule="evenodd" />
    </g>
  </g>
  <path
     style="fill:#ff0000;stroke-width:1.059322"
     d="M 80.670758,143.38263 C 79.783557,142.49542 79.449153,128.81546 79.449153,93.408663 V 44.656309 L 100.40019,23.705273 C 119.45244,4.6530219 121.67924,2.7542373 124.97047,2.7542373 c 3.29063,0 5.56911,1.9414282 25.09397,21.3818537 11.81109,11.760019 21.92503,22.673628 22.47542,24.252465 0.724,2.076878 0.57423,3.707054 -0.54166,5.895689 -1.5352,3.011052 -85.190761,87.576295 -88.414306,89.375745 -1.07169,0.59823 -2.139172,0.4966 -2.913136,-0.27736 z"
     id="path3727"
     inkscape:connector-curvature="0" />
  <path
     style="fill:#ff0000;stroke-width:1.059322"
     d="M 23.673665,148.6969 C 12.515157,137.46975 3.0726933,127.22515 2.6904145,125.93112 2.1016508,123.93814 5.2041619,120.24931 22.978613,101.80877 35.012058,89.324385 44.6396,80.168052 45.550847,80.341308 c 1.382031,0.262766 1.588984,6.024029 1.588984,44.234962 0,38.2117 -0.206925,43.97197 -1.588984,44.23324 -0.895724,0.16933 -10.440539,-8.60562 -21.877182,-20.11261 z"
     id="path3729"
     inkscape:connector-curvature="0" />
  <path
     style="fill:#ff0000;stroke-width:1.059322"
     d="M 101.44951,225.47669 C 89.833095,213.96981 79.615361,203.19283 78.74343,201.52786 c -0.871931,-1.66498 -1.327015,-4.04845 -1.011299,-5.29661 0.315716,-1.24816 10.510196,-12.16081 22.654399,-24.25032 C 120.47447,151.98346 122.79323,150 126.08335,150 c 3.29587,0 5.56795,1.95715 25.63096,22.07831 19.95534,20.01318 22.0145,22.41343 22.0145,25.66116 0,3.25245 -2.07845,5.66131 -22.53799,26.12085 -18.87739,18.87739 -23.03195,22.53799 -25.57927,22.53799 -2.53325,0 -6.56952,-3.49496 -24.16204,-20.92162 z"
     id="path3731"
     inkscape:connector-curvature="0" />
  <path
     style="fill:#ff0000;stroke-width:1.059322"
     d="m 196.50424,172.25651 c -1.16526,-0.49199 -11.85117,-10.67088 -23.74647,-22.61975 -18.95191,-19.03724 -21.62783,-22.1379 -21.62783,-25.06072 0,-2.92795 2.70617,-6.04398 22.14803,-25.502382 20.34885,-20.366173 22.4477,-22.166878 25.83707,-22.166878 3.38793,0 5.48554,1.796492 25.69802,22.008973 20.07231,20.072307 22.00897,22.328277 22.00897,25.637657 0,3.3106 -1.92682,5.55178 -21.98093,25.56712 -12.08951,12.06614 -22.93432,22.18416 -24.09957,22.48448 -1.16526,0.30032 -3.07204,0.14349 -4.23729,-0.3485 z"
     id="path3733"
     inkscape:connector-curvature="0" />
</svg>
